<?xml version="1.0"?>
<svg xmlns="http://www.w3.org/2000/svg" xmlns:xlink="http://www.w3.org/1999/xlink" xmlns:svgjs="http://svgjs.com/svgjs" version="1.1" width="512" height="512" x="0" y="0" viewBox="0 0 64 64" style="enable-background:new 0 0 512 512" xml:space="preserve" class=""><g><g xmlns="http://www.w3.org/2000/svg" id="media-monitor-screen-Digital_Marketing" data-name="media-monitor-screen-Digital Marketing"><path d="m29.467 29h-18.934l9.467 5.826z" fill="#da2535" data-original="#000000" style="" class=""/><path d="m39 30a1 1 0 0 1 1-1h14v-2h-16v10h1z" fill="#da2535" data-original="#000000" style="" class=""/><path d="m41 37v4h15v-10h-15zm13 2h-5v-2h5zm-7-6h7v2h-7zm-4 0h2v2h-2zm0 4h4v2h-4z" fill="#da2535" data-original="#000000" style="" class=""/><path d="m30 53h4v3h-4z" fill="#da2535" data-original="#000000" style="" class=""/><path d="m60 50v-1h-56v1a1 1 0 0 0 1 1h54a1 1 0 0 0 1-1z" fill="#da2535" data-original="#000000" style="" class=""/><path d="m23 58h18v2h-18z" fill="#da2535" data-original="#000000" style="" class=""/><path d="m5 17a1 1 0 0 0 -1 1v29h56v-29a1 1 0 0 0 -1-1h-2v2a1.015 1.015 0 0 1 -1 1 .925.925 0 0 1 -.29-.04l-12.86-3.96h-.98l-.88 6.14a1 1 0 0 1 -.99.86h-3a1 1 0 0 1 -1-1v-5h-7v5a1 1 0 0 1 -1 1h-20a1 1 0 0 1 -1-1v-5zm31 9a1 1 0 0 1 1-1h18a1 1 0 0 1 1 1v3h1a1 1 0 0 1 1 1v12a1 1 0 0 1 -1 1h-17a1 1 0 0 1 -1-1v-3h-2a1 1 0 0 1 -1-1zm-3 1a1 1 0 0 1 1 1v16a1 1 0 0 1 -1 1h-26a1 1 0 0 1 -1-1v-16a1 1 0 0 1 1-1z" fill="#da2535" data-original="#000000" style="" class=""/><path d="m32 29.789-11.476 7.063a1 1 0 0 1 -1.048 0l-11.476-7.063v13.211h24z" fill="#da2535" data-original="#000000" style="" class=""/><path d="m17 15.382 2.764-1.382-2.764-1.382z" fill="#da2535" data-original="#000000" style="" class=""/><path d="m39.13 21 .72-5h-1.85v5z" fill="#da2535" data-original="#000000" style="" class=""/><path d="m9 7v14h18v-14zm13.447 7.9-6 3a1 1 0 0 1 -1.447-.9v-6a1 1 0 0 1 1.447-.895l6 3a1 1 0 0 1 0 1.79z" fill="#da2535" data-original="#000000" style="" class=""/><path d="m37 9h-2v4h2v1h5v-6h-5z" fill="#da2535" data-original="#000000" style="" class=""/><path d="m55 9v-4.65l-11 3.39v6.52l11 3.39v-4.65a2 2 0 0 0 0-4z" fill="#da2535" data-original="#000000" style="" class=""/></g></g></svg>
