<?xml version="1.0"?>
<svg xmlns="http://www.w3.org/2000/svg" xmlns:xlink="http://www.w3.org/1999/xlink" xmlns:svgjs="http://svgjs.com/svgjs" version="1.1" width="512" height="512" x="0" y="0" viewBox="0 0 700 700" style="enable-background:new 0 0 512 512" xml:space="preserve" class=""><g>
<g xmlns="http://www.w3.org/2000/svg" id="surface1">
<path d="M 175 500 L 225.007812 500 L 225.007812 550 L 175 550 Z M 175 500 " style="" fill="#da2535" data-original="#000000" class=""/>
<path d="M 50 500 L 100.007812 500 L 100.007812 550 L 50 550 Z M 50 500 " style="" fill="#da2535" data-original="#000000" class=""/>
<path d="M 300 125 L 350.007812 125 L 350.007812 175 L 300 175 Z M 300 125 " style="" fill="#da2535" data-original="#000000" class=""/>
<path d="M 50 250 L 100.007812 250 L 100.007812 300 L 50 300 Z M 50 250 " style="" fill="#da2535" data-original="#000000" class=""/>
<path d="M 50 125 L 100.007812 125 L 100.007812 175 L 50 175 Z M 50 125 " style="" fill="#da2535" data-original="#000000" class=""/>
<path d="M 175 375 L 225.007812 375 L 225.007812 425 L 175 425 Z M 175 375 " style="" fill="#da2535" data-original="#000000" class=""/>
<path d="M 50 375 L 100.007812 375 L 100.007812 425 L 50 425 Z M 50 375 " style="" fill="#da2535" data-original="#000000" class=""/>
<path d="M 300 250 L 350.007812 250 L 350.007812 300 L 300 300 Z M 300 250 " style="" fill="#da2535" data-original="#000000" class=""/>
<path d="M 0 662.5 C 0 683.207031 16.792969 700 37.5 700 L 325.085938 700 C 325.359375 674.6875 328.714844 649.5 335.085938 625 L 0 625 Z M 187.5 650 L 212.5 650 L 212.5 675 L 187.5 675 Z M 187.5 650 " style="" fill="#da2535" data-original="#000000" class=""/>
<path d="M 521.625 354.488281 L 425 265.550781 L 425 407.324219 L 508.835938 491.164062 L 491.164062 508.835938 L 367.773438 385.449219 C 352.9375 369.96875 328.847656 368.117188 311.8125 381.140625 C 302.96875 388.390625 297.597656 399.046875 297.027344 410.476562 C 296.460938 421.90625 300.75 433.046875 308.835938 441.136719 L 396.335938 528.636719 C 400.546875 532.851562 401.210938 539.453125 397.898438 544.414062 C 367.132812 590.503906 350.515625 644.585938 350.097656 700 L 550 700 L 550 419 C 549.976562 394.476562 539.6875 371.085938 521.625 354.488281 Z M 521.625 354.488281 " style="" fill="#da2535" data-original="#000000" class=""/>
<path d="M 291.164062 458.835938 C 278.085938 445.757812 271.148438 427.765625 272.050781 409.296875 C 272.953125 390.824219 281.617188 373.59375 295.898438 361.855469 C 322.898438 340.722656 361.46875 343.273438 385.449219 367.773438 L 400 382.324219 L 400 75 L 0 75 L 0 600 L 342.574219 600 C 349.980469 578.742188 359.691406 558.355469 371.539062 539.214844 Z M 275 125 C 275 111.191406 286.191406 100 300 100 L 350 100 C 363.808594 100 375 111.191406 375 125 L 375 175 C 375 188.808594 363.808594 200 350 200 L 300 200 C 286.191406 200 275 188.808594 275 175 Z M 275 250 C 275 236.191406 286.191406 225 300 225 L 350 225 C 363.808594 225 375 236.191406 375 250 L 375 300 C 375 313.808594 363.808594 325 350 325 L 300 325 C 286.191406 325 275 313.808594 275 300 Z M 125 550 C 125 563.808594 113.808594 575 100 575 L 50 575 C 36.191406 575 25 563.808594 25 550 L 25 500 C 25 486.191406 36.191406 475 50 475 L 100 475 C 113.808594 475 125 486.191406 125 500 Z M 125 425 C 125 438.808594 113.808594 450 100 450 L 50 450 C 36.191406 450 25 438.808594 25 425 L 25 375 C 25 361.191406 36.191406 350 50 350 L 100 350 C 113.808594 350 125 361.191406 125 375 Z M 125 300 C 125 313.808594 113.808594 325 100 325 L 50 325 C 36.191406 325 25 313.808594 25 300 L 25 250 C 25 236.191406 36.191406 225 50 225 L 100 225 C 113.808594 225 125 236.191406 125 250 Z M 125 175 C 125 188.808594 113.808594 200 100 200 L 50 200 C 36.191406 200 25 188.808594 25 175 L 25 125 C 25 111.191406 36.191406 100 50 100 L 100 100 C 113.808594 100 125 111.191406 125 125 Z M 250 550 C 250 563.808594 238.808594 575 225 575 L 175 575 C 161.191406 575 150 563.808594 150 550 L 150 500 C 150 486.191406 161.191406 475 175 475 L 225 475 C 238.808594 475 250 486.191406 250 500 Z M 250 425 C 250 438.808594 238.808594 450 225 450 L 175 450 C 161.191406 450 150 438.808594 150 425 L 150 375 C 150 361.191406 161.191406 350 175 350 L 225 350 C 238.808594 350 250 361.191406 250 375 Z M 250 300 C 250 313.808594 238.808594 325 225 325 L 175 325 C 161.191406 325 150 313.808594 150 300 L 150 250 C 150 236.191406 161.191406 225 175 225 L 225 225 C 238.808594 225 250 236.191406 250 250 Z M 250 175 C 250 188.808594 238.808594 200 225 200 L 175 200 C 161.191406 200 150 188.808594 150 175 L 150 125 C 150 111.191406 161.191406 100 175 100 L 225 100 C 238.808594 100 250 111.191406 250 125 Z M 250 175 " style="" fill="#da2535" data-original="#000000" class=""/>
<path d="M 175 125 L 225.007812 125 L 225.007812 175 L 175 175 Z M 175 125 " style="" fill="#da2535" data-original="#000000" class=""/>
<path d="M 175 250 L 225.007812 250 L 225.007812 300 L 175 300 Z M 175 250 " style="" fill="#da2535" data-original="#000000" class=""/>
<path d="M 400 37.5 C 400 16.792969 383.207031 0 362.5 0 L 37.5 0 C 16.792969 0 0 16.792969 0 37.5 L 0 50 L 400 50 Z M 400 37.5 " style="" fill="#da2535" data-original="#000000" class=""/>
</g>
</g></svg>
